<svg width="120.000000" height="24.000000" viewBox="0 0 120 24" fill="none" xmlns="http://www.w3.org/2000/svg" xmlns:xlink="http://www.w3.org/1999/xlink">
	<desc>
			Created with Pixso.
	</desc>
	<defs/>
	<path id="Star" d="M11.44 1.32L8.96 7.29C8.88 7.5 8.68 7.64 8.46 7.66L2.02 8.17C1.49 8.21 1.27 8.88 1.68 9.22L6.58 13.43C6.75 13.57 6.83 13.8 6.77 14.02L5.28 20.3C5.15 20.82 5.72 21.23 6.17 20.95L11.68 17.59C11.87 17.47 12.12 17.47 12.31 17.59L17.82 20.95C18.27 21.23 18.84 20.82 18.71 20.3L17.22 14.02C17.16 13.8 17.24 13.57 17.41 13.43L22.31 9.22C22.72 8.88 22.5 8.21 21.97 8.17L15.53 7.66C15.31 7.64 15.11 7.5 15.03 7.29L12.55 1.32C12.34 0.83 11.65 0.83 11.44 1.32Z" fill="#F4DC00" fill-opacity="1.000000" fill-rule="evenodd"/>
	<path id="Star" d="M35.44 1.32L32.96 7.29C32.88 7.5 32.68 7.64 32.46 7.66L26.02 8.17C25.49 8.21 25.27 8.88 25.68 9.22L30.58 13.43C30.75 13.57 30.83 13.8 30.77 14.02L29.28 20.3C29.15 20.82 29.72 21.23 30.17 20.95L35.68 17.59C35.87 17.47 36.12 17.47 36.31 17.59L41.82 20.95C42.27 21.23 42.84 20.82 42.71 20.3L41.22 14.02C41.16 13.8 41.24 13.57 41.41 13.43L46.31 9.22C46.72 8.88 46.5 8.21 45.97 8.17L39.53 7.66C39.31 7.64 39.11 7.5 39.03 7.29L36.55 1.32C36.34 0.83 35.65 0.83 35.44 1.32Z" fill="#F4DC00" fill-opacity="1.000000" fill-rule="evenodd"/>
	<path id="Star" d="M59.44 1.32L56.96 7.29C56.88 7.5 56.68 7.64 56.46 7.66L50.02 8.17C49.49 8.21 49.27 8.88 49.68 9.22L54.58 13.43C54.75 13.57 54.83 13.8 54.77 14.02L53.28 20.3C53.15 20.82 53.72 21.23 54.17 20.95L59.68 17.59C59.87 17.47 60.12 17.47 60.31 17.59L65.82 20.95C66.27 21.23 66.84 20.82 66.71 20.3L65.22 14.02C65.16 13.8 65.24 13.57 65.41 13.43L70.31 9.22C70.72 8.88 70.5 8.21 69.97 8.17L63.53 7.66C63.31 7.64 63.11 7.5 63.03 7.29L60.55 1.32C60.34 0.83 59.65 0.83 59.44 1.32Z" fill="#F4DC00" fill-opacity="1.000000" fill-rule="evenodd"/>
	<path id="Star" d="M83.44 1.32L80.96 7.29C80.88 7.5 80.68 7.64 80.46 7.66L74.02 8.17C73.49 8.21 73.27 8.88 73.68 9.22L78.58 13.43C78.75 13.57 78.83 13.8 78.77 14.02L77.28 20.3C77.15 20.82 77.72 21.23 78.17 20.95L83.68 17.59C83.87 17.47 84.12 17.47 84.31 17.59L89.82 20.95C90.27 21.23 90.84 20.82 90.71 20.3L89.22 14.02C89.16 13.8 89.24 13.57 89.41 13.43L94.31 9.22C94.72 8.88 94.5 8.21 93.97 8.17L87.53 7.66C87.31 7.64 87.11 7.5 87.03 7.29L84.55 1.32C84.34 0.83 83.65 0.83 83.44 1.32Z" fill="#F4DC00" fill-opacity="1.000000" fill-rule="evenodd"/>
	<path id="Star" d="M107.44 1.32L104.96 7.29C104.88 7.5 104.68 7.64 104.46 7.66L98.02 8.17C97.49 8.21 97.27 8.88 97.68 9.22L102.58 13.43C102.75 13.57 102.83 13.8 102.78 14.02L101.28 20.3C101.15 20.82 101.72 21.23 102.17 20.95L107.68 17.59C107.88 17.47 108.12 17.47 108.31 17.59L113.82 20.95C114.28 21.23 114.84 20.82 114.71 20.3L113.22 14.02C113.16 13.8 113.24 13.57 113.41 13.43L118.32 9.22C118.72 8.88 118.5 8.21 117.97 8.17L111.53 7.66C111.31 7.64 111.12 7.5 111.03 7.29L108.55 1.32C108.34 0.83 107.65 0.83 107.44 1.32Z" fill="#F4DC00" fill-opacity="1.000000" fill-rule="evenodd"/>
</svg>
