<svg width="24.000000" height="24.000000" viewBox="0 0 24 24" fill="none" xmlns="http://www.w3.org/2000/svg" xmlns:xlink="http://www.w3.org/1999/xlink">
	<desc>
			Created with Pixso.
	</desc>
	<defs>
		<clipPath id="clip15_336">
			<rect id="Icon" rx="0.000000" width="23.000000" height="23.000000" transform="translate(0.500000 0.500000)" fill="white" fill-opacity="0"/>
		</clipPath>
	</defs>
	<g clip-path="url(#clip15_336)">
		<path id="Vector 431 (Stroke)" d="M9.21 5.87L17.56 5.87C17.71 5.87 17.85 5.93 17.96 6.03C18.06 6.14 18.12 6.28 18.12 6.43L18.12 14.78C18.12 15.09 17.87 15.34 17.56 15.34C17.26 15.34 17.01 15.09 17.01 14.78L17.01 7.77L6.82 17.96C6.6 18.17 6.25 18.17 6.03 17.96C5.82 17.74 5.82 17.39 6.03 17.17L16.22 6.98L9.21 6.98C8.9 6.98 8.65 6.73 8.65 6.43C8.65 6.12 8.9 5.87 9.21 5.87Z" fill="#FBFBFB" fill-opacity="1.000000" fill-rule="evenodd"/>
	</g>
</svg>
