<svg width="24.000000" height="24.000000" viewBox="0 0 24 24" fill="none" xmlns="http://www.w3.org/2000/svg" xmlns:xlink="http://www.w3.org/1999/xlink">
	<desc>
			Created with Pixso.
	</desc>
	<defs>
		<clipPath id="clip15_691">
			<rect id="Form-Validation-Check-1--Streamline-Freehand" rx="0.000000" width="23.000000" height="23.000000" transform="translate(0.500000 0.500000)" fill="white" fill-opacity="0"/>
		</clipPath>
	</defs>
	<rect id="Form-Validation-Check-1--Streamline-Freehand" rx="0.000000" width="23.000000" height="23.000000" transform="translate(0.500000 0.500000)" fill="#FFFFFF" fill-opacity="0"/>
	<g clip-path="url(#clip15_691)">
		<path id="Vector" d="M16.45 5.07C16.35 5.07 16.26 5.1 16.19 5.15C16.12 5.21 16.07 5.29 16.04 5.39C15.79 5.76 12.49 10.39 11.6 11.82C11.31 12.27 10.98 12.74 10.69 13.15C10.36 13.62 10.06 14.05 9.8 14.47L9.22 15.41L9.11 15.61C7.97 13.84 6.44 12.61 6.11 12.74L5.95 12.74L5.95 12.86C5.92 12.95 5.92 13.05 5.95 13.14C6.37 14.71 7.34 16.08 8.7 17C8.8 17.07 8.92 17.12 9.06 17.13C9.19 17.12 9.31 17.08 9.42 17C9.57 16.88 10.42 15.56 11.05 14.66C11.68 13.76 12.31 12.66 12.73 12C13.15 11.34 16 7 16.33 6.44C16.85 5.64 16.85 5.51 16.85 5.44C16.84 5.33 16.79 5.24 16.72 5.17C16.64 5.1 16.55 5.06 16.45 5.07Z" fill="#003366" fill-opacity="1.000000" fill-rule="nonzero"/>
		<path id="Vector" d="M12.21 0C12.05 0.05 11.92 0.14 11.82 0.27C11.72 0.39 11.66 0.55 11.64 0.7C11.58 1.7 11.64 2.13 11.87 2.32C11.94 2.37 12.03 2.4 12.11 2.4L12.24 2.4C12.46 2.34 12.5 2.11 12.56 1.77C12.6 1.46 12.68 1.17 12.8 0.89C12.98 0.48 12.88 0.26 12.8 0.14C12.72 0.06 12.63 0 12.52 -0.03C12.42 -0.05 12.31 -0.04 12.21 0Z" fill="#003366" fill-opacity="1.000000" fill-rule="nonzero"/>
		<path id="Vector" d="M20.59 3.68C20.45 3.62 20.29 3.59 20.13 3.61C19.97 3.63 19.82 3.69 19.7 3.8C18.96 4.44 18.7 4.8 18.7 5.1C18.7 5.16 18.73 5.22 18.76 5.27C18.8 5.32 18.85 5.36 18.9 5.39C18.95 5.41 19.01 5.41 19.06 5.39C19.25 5.36 19.43 5.27 19.57 5.13C19.82 4.94 20.1 4.79 20.38 4.66C20.81 4.51 20.89 4.29 20.9 4.12C20.9 4.03 20.87 3.94 20.81 3.86C20.76 3.78 20.68 3.72 20.59 3.68Z" fill="#003366" fill-opacity="1.000000" fill-rule="nonzero"/>
		<path id="Vector" d="M24 12.21C23.94 12.05 23.85 11.92 23.72 11.82C23.6 11.72 23.44 11.66 23.29 11.64C22.29 11.58 21.87 11.64 21.67 11.87C21.64 11.93 21.61 11.98 21.6 12.05C21.59 12.11 21.59 12.17 21.61 12.24C21.66 12.46 21.9 12.5 22.24 12.56C22.55 12.6 22.85 12.68 23.15 12.8C23.27 12.86 23.41 12.9 23.56 12.9C23.68 12.91 23.8 12.87 23.9 12.79C23.97 12.71 24.01 12.61 24.03 12.51C24.05 12.41 24.04 12.3 24 12.21Z" fill="#003366" fill-opacity="1.000000" fill-rule="nonzero"/>
		<path id="Vector" d="M18.9 18.73C18.83 18.73 18.77 18.76 18.72 18.79C18.67 18.83 18.63 18.88 18.6 18.94C18.49 19.13 18.6 19.32 18.82 19.61C19.01 19.85 19.16 20.13 19.29 20.42C19.45 20.84 19.66 20.93 19.83 20.94C19.93 20.93 20.02 20.89 20.1 20.83C20.19 20.77 20.25 20.69 20.29 20.6C20.35 20.45 20.38 20.29 20.36 20.13C20.34 19.97 20.28 19.82 20.17 19.7C19.54 19 19.18 18.7 18.9 18.73Z" fill="#003366" fill-opacity="1.000000" fill-rule="nonzero"/>
		<path id="Vector" d="M11.76 21.57C11.54 21.62 11.5 21.86 11.44 22.2C11.39 22.51 11.31 22.81 11.2 23.11C11.02 23.51 11.11 23.74 11.2 23.86C11.24 23.9 11.3 23.94 11.36 23.96C11.42 23.98 11.48 24 11.55 24C11.62 24.01 11.7 24.01 11.78 24C11.93 23.94 12.06 23.85 12.16 23.72C12.26 23.6 12.32 23.44 12.34 23.29C12.4 22.29 12.34 21.86 12.11 21.67C12.06 21.63 12 21.6 11.94 21.58C11.88 21.56 11.82 21.56 11.76 21.57Z" fill="#003366" fill-opacity="1.000000" fill-rule="nonzero"/>
		<path id="Vector" d="M5.06 18.6C4.87 18.49 4.68 18.6 4.39 18.82C4.14 19.01 3.86 19.16 3.58 19.29C3.16 19.45 3.07 19.66 3.06 19.83C3.06 19.93 3.09 20.03 3.15 20.12C3.21 20.2 3.3 20.27 3.4 20.31C3.51 20.36 3.64 20.38 3.77 20.39C3.96 20.39 4.15 20.32 4.3 20.2C5.03 19.54 5.3 19.2 5.3 18.9C5.28 18.83 5.25 18.77 5.21 18.72C5.17 18.66 5.12 18.62 5.06 18.6Z" fill="#003366" fill-opacity="1.000000" fill-rule="nonzero"/>
		<path id="Vector" d="M1.8 11.44C1.48 11.39 1.18 11.31 0.89 11.2C0.47 11.02 0.26 11.11 0.14 11.2C0.06 11.27 0.02 11.36 0 11.47C-0.02 11.57 -0.01 11.67 0.04 11.77C0.09 11.92 0.18 12.05 0.31 12.15C0.43 12.25 0.59 12.31 0.75 12.33L1.37 12.33C1.92 12.33 2.21 12.26 2.37 12.08C2.4 12.02 2.43 11.97 2.44 11.9C2.45 11.84 2.45 11.78 2.43 11.72C2.37 11.54 2.14 11.5 1.8 11.44Z" fill="#003366" fill-opacity="1.000000" fill-rule="nonzero"/>
		<path id="Vector" d="M4.7 3.58C4.55 3.16 4.33 3.07 4.16 3.06C4.06 3.05 3.96 3.09 3.87 3.15C3.78 3.21 3.72 3.3 3.68 3.4C3.62 3.54 3.59 3.7 3.61 3.86C3.63 4.02 3.69 4.17 3.8 4.3C4.41 5 4.8 5.3 5.05 5.3C5.11 5.29 5.17 5.26 5.22 5.23C5.27 5.19 5.31 5.14 5.35 5.09C5.45 4.9 5.35 4.71 5.12 4.42C4.95 4.15 4.81 3.87 4.7 3.58Z" fill="#003366" fill-opacity="1.000000" fill-rule="nonzero"/>
	</g>
</svg>
