<svg width="28.000000" height="28.000000" viewBox="0 0 28 28" fill="none" xmlns="http://www.w3.org/2000/svg" xmlns:xlink="http://www.w3.org/1999/xlink">
	<desc>
			Created with Pixso.
	</desc>
	<defs/>
	<rect id="Icon" rx="0.000000" width="27.000000" height="26.999996" transform="translate(0.500000 0.500000)" fill="#FFFFFF" fill-opacity="0"/>
	<path id="Icon" d="M15.45 2.31L14.64 2.78C13.76 3.3 13.32 3.57 12.84 3.63C12.35 3.69 11.87 3.54 10.92 3.25L10.06 2.98C6.71 1.95 5.04 1.44 4.04 2.36C3.03 3.28 3.36 5.02 4.01 8.51L4.18 9.42C4.37 10.41 4.46 10.91 4.35 11.39C4.24 11.87 3.94 12.29 3.34 13.13L2.79 13.89C0.67 16.83 -0.39 18.31 0.12 19.53C0.64 20.75 2.4 20.91 5.9 21.23L6.81 21.31C7.8 21.4 8.3 21.45 8.72 21.69C9.14 21.92 9.43 22.33 10 23.14L10.53 23.88C12.56 26.72 13.58 28.15 14.9 27.98C16.23 27.82 16.99 26.17 18.5 22.88L18.89 22.03C19.11 21.55 19.27 21.19 19.43 20.91L25.85 27.34C26.26 27.75 26.93 27.75 27.34 27.34C27.75 26.93 27.75 26.26 27.34 25.85L21.13 19.65C21.3 19.59 21.49 19.52 21.71 19.44L22.58 19.14C25.96 17.95 27.65 17.36 27.95 16.04C28.25 14.72 26.97 13.54 24.4 11.18L23.73 10.57C23 9.91 22.63 9.57 22.44 9.12C22.26 8.68 22.26 8.17 22.28 7.15L22.29 6.22C22.35 2.65 22.37 0.86 21.24 0.2C20.1 -0.45 18.55 0.47 15.45 2.31Z" fill="#FBFBFB" fill-opacity="1.000000" fill-rule="evenodd"/>
</svg>
