<svg width="24.000000" height="24.000000" viewBox="0 0 24 24" fill="none" xmlns="http://www.w3.org/2000/svg" xmlns:xlink="http://www.w3.org/1999/xlink">
	<desc>
			Created with Pixso.
	</desc>
	<defs>
		<clipPath id="clip15_456">
			<rect id="Property 1=language" rx="0.000000" width="23.000000" height="23.000000" transform="translate(0.500000 0.500000)" fill="white" fill-opacity="0"/>
		</clipPath>
	</defs>
	<rect id="Property 1=language" rx="0.000000" width="23.000000" height="23.000000" transform="translate(0.500000 0.500000)" fill="#FFFFFF" fill-opacity="0"/>
	<g clip-path="url(#clip15_456)">
		<path id="Vector" d="M23.79 5.18C23.56 4.03 23.01 2.97 22.21 2.11C21.41 1.25 20.39 0.63 19.26 0.33C18.04 0.06 16.77 0.12 15.58 0.51C14.42 0.88 13.38 1.57 12.58 2.51C11.5 3.87 10.9 5.55 10.88 7.3C10.83 8.16 11.01 9.03 11.4 9.81C11.8 10.58 12.39 11.24 13.11 11.72C13.56 12.01 13.39 11.58 12.83 13.91C12.39 15.4 12.47 15.06 12.49 15.21C12.49 15.31 12.53 15.42 12.59 15.51C12.67 15.61 12.77 15.68 12.88 15.72C13.19 15.8 13.51 15.78 13.81 15.65C14.25 15.44 14.67 15.16 15.06 14.84L16.49 13.66C16.52 13.64 16.55 13.61 16.58 13.58C16.6 13.54 16.62 13.51 16.62 13.46C16.63 13.42 16.63 13.38 16.62 13.34C16.62 13.3 16.6 13.26 16.57 13.23C16.53 13.16 16.46 13.11 16.37 13.09C16.29 13.07 16.21 13.09 16.13 13.13L14.56 14.08C14.28 14.25 14 14.4 13.71 14.55L13.79 14.15C13.82 13.91 13.85 13.67 13.87 13.43C13.87 12.89 13.87 12.37 13.97 11.84C13.97 11.68 13.84 11.63 13.75 11.51C13.66 11.39 13.54 11.31 13.41 11.25C12.79 10.81 12.3 10.21 11.99 9.52C11.67 8.82 11.55 8.06 11.62 7.31C11.69 5.77 12.26 4.3 13.26 3.13C13.97 2.35 14.89 1.79 15.9 1.51C16.91 1.19 17.97 1.15 19 1.38C19.94 1.63 20.8 2.15 21.47 2.86C22.14 3.58 22.61 4.46 22.81 5.42C23.08 6.39 23.13 7.4 22.95 8.39C22.76 9.37 22.34 10.3 21.73 11.1C21.21 11.71 20.54 12.18 19.79 12.46C19 12.71 18.17 12.82 17.34 12.8C17.26 12.8 17.18 12.83 17.12 12.89C17.06 12.94 17.02 13.02 17.02 13.11C17.01 13.15 17.02 13.19 17.04 13.23C17.05 13.27 17.08 13.31 17.11 13.34C17.13 13.37 17.17 13.39 17.21 13.41C17.25 13.43 17.29 13.43 17.33 13.43C18.24 13.49 19.15 13.39 20.02 13.13C20.91 12.85 21.71 12.32 22.32 11.62C23.06 10.74 23.58 9.69 23.83 8.58C24.09 7.46 24.07 6.3 23.79 5.18Z" fill="#003366" fill-opacity="1.000000" fill-rule="evenodd"/>
		<path id="Vector" d="M2.38 12.14C2.86 12.51 3.41 12.8 4 13C5.56 13.55 5.41 13.15 5.8 13.62L6.91 15.08L7.79 16.14C7.89 16.26 8 16.38 8.12 16.5C8.22 16.59 8.35 16.64 8.5 16.65C8.59 16.65 8.68 16.63 8.77 16.59C8.85 16.56 8.93 16.5 9 16.44C9.12 16.24 9.22 16.02 9.28 15.79L9.34 15.3L9.27 14.3L9.23 12.9C9.52 12.9 9.81 12.86 10.09 12.78C10.2 12.73 10.31 12.68 10.41 12.61C10.5 12.54 10.59 12.46 10.68 12.38C10.86 12.17 11.02 11.94 11.17 11.71C11.22 11.64 11.25 11.56 11.25 11.48C11.25 11.4 11.22 11.32 11.17 11.26C11.11 11.2 11.02 11.16 10.94 11.16C10.86 11.16 10.78 11.2 10.72 11.26C10.42 11.46 10.1 11.56 9.81 11.72C9.73 11.77 9.65 11.82 9.59 11.89C9.39 12.05 9.26 12.23 9.06 12.37C8.86 12.51 9.06 12.37 8.91 12.37C8.86 12.36 8.82 12.37 8.78 12.38C8.74 12.4 8.7 12.42 8.67 12.44C8.64 12.47 8.62 12.51 8.6 12.54C8.58 12.58 8.57 12.62 8.57 12.67L8.43 14.26L8.34 15.19L7.56 14.46L6.24 13.26C6.05 13.04 6.16 12.84 5.87 12.79C5.31 12.7 4.77 12.55 4.26 12.34C3.75 12.15 3.29 11.86 2.89 11.51C2.66 11.29 2.46 11.05 2.3 10.79C2.13 10.53 1.98 10.27 1.85 10C1.57 9.45 1.37 8.88 1.23 8.3C1.08 7.73 1.02 7.14 1.06 6.56C1.12 5.37 1.53 4.24 2.26 3.3C2.95 2.35 3.9 1.62 5 1.19C5.4 1.03 5.82 0.93 6.26 0.88C6.69 0.83 7.13 0.83 7.57 0.88C8.05 0.9 8.53 0.97 9 1.1C9.45 1.23 9.89 1.41 10.31 1.64C10.37 1.67 10.45 1.68 10.52 1.65C10.59 1.63 10.65 1.59 10.69 1.53C10.7 1.49 10.72 1.46 10.72 1.42C10.73 1.38 10.72 1.34 10.71 1.31C10.7 1.27 10.69 1.24 10.66 1.21C10.64 1.18 10.61 1.15 10.58 1.14C10.12 0.87 9.64 0.66 9.15 0.48C8.66 0.31 8.16 0.19 7.65 0.13C7.16 0.06 6.67 0.04 6.19 0.07C5.69 0.1 5.19 0.19 4.72 0.34C3.4 0.75 2.24 1.56 1.39 2.66C0.55 3.76 0.06 5.08 0 6.46C-0.02 7.14 0.07 7.82 0.27 8.46C0.46 9.11 0.72 9.73 1.05 10.32C1.24 10.71 1.48 11.08 1.75 11.43C1.93 11.68 2.14 11.92 2.38 12.14Z" fill="#003366" fill-opacity="1.000000" fill-rule="evenodd"/>
		<path id="Vector" d="M14.99 9.73C15 9.78 15.01 9.82 15.03 9.85C15.05 9.89 15.08 9.92 15.12 9.95C15.15 9.98 15.19 10 15.23 10.01C15.27 10.02 15.31 10.02 15.35 10.02C16.09 10 16.81 9.78 17.42 9.38C17.66 9.51 17.9 9.61 18.15 9.68C18.58 9.81 19.01 9.9 19.45 9.95C19.49 9.97 19.53 9.98 19.58 9.97C19.62 9.97 19.67 9.96 19.71 9.93C19.75 9.91 19.78 9.88 19.81 9.85C19.83 9.81 19.85 9.77 19.86 9.72C19.87 9.68 19.87 9.63 19.86 9.59C19.86 9.55 19.84 9.5 19.81 9.47C19.79 9.43 19.75 9.4 19.71 9.38C19.67 9.35 19.63 9.34 19.58 9.33C19.27 9.24 18.95 9.13 18.64 9C18.49 8.91 18.34 8.82 18.2 8.71C18.33 8.57 18.44 8.41 18.54 8.25C18.7 7.97 18.82 7.67 18.9 7.36L19.09 5.83C19.45 5.83 19.8 5.77 20.15 5.71C20.38 5.68 20.6 5.63 20.81 5.57C20.86 5.55 20.89 5.54 20.93 5.51C20.96 5.49 20.99 5.45 21.01 5.42C21.03 5.38 21.05 5.34 21.05 5.3C21.06 5.26 21.06 5.22 21.04 5.17C21.02 5.09 20.97 5.03 20.9 4.98C20.82 4.94 20.74 4.93 20.65 4.94C20.47 4.96 20.29 4.96 20.1 4.94C19.62 4.94 19.1 4.84 18.65 4.84L17.73 4.84C17.65 4.68 17.61 4.54 17.52 4.38C17.47 4.27 17.39 4.17 17.3 4.08C17.12 3.93 16.92 3.8 16.7 3.69C16.66 3.64 16.59 3.6 16.51 3.59C16.44 3.58 16.36 3.61 16.3 3.65C16.25 3.7 16.21 3.77 16.2 3.85C16.19 3.92 16.22 4 16.26 4.06C16.31 4.25 16.36 4.45 16.42 4.64C16.46 4.72 16.51 4.8 16.56 4.86C16.58 4.89 16.61 4.91 16.63 4.92L16.13 5L15.22 5.16C15.02 5.18 14.83 5.18 14.63 5.16C14.6 5.16 14.56 5.16 14.52 5.18C14.49 5.19 14.45 5.2 14.42 5.23C14.4 5.25 14.37 5.28 14.35 5.32C14.34 5.35 14.33 5.39 14.32 5.42C14.32 5.46 14.32 5.5 14.33 5.53C14.34 5.57 14.36 5.6 14.39 5.63C14.41 5.66 14.44 5.68 14.47 5.7C14.5 5.71 14.54 5.72 14.57 5.72L15.57 5.82C15.57 5.9 15.57 5.99 15.57 6.08C15.59 6.36 15.64 6.64 15.71 6.91C15.81 7.37 15.99 7.81 16.21 8.21C16.32 8.38 16.45 8.54 16.59 8.67C16.19 8.97 15.73 9.19 15.24 9.31C15.2 9.31 15.15 9.33 15.11 9.36C15.07 9.38 15.04 9.42 15.02 9.46C14.99 9.5 14.98 9.55 14.98 9.6C14.97 9.64 14.98 9.69 14.99 9.73ZM16.26 6.05L16.26 5.93L17.48 5.93C17.87 5.93 18.14 5.93 18.48 5.84L17.99 7C17.83 7.33 17.63 7.65 17.38 7.93L17.33 7.93C17.3 7.89 17.27 7.85 17.23 7.81C16.94 7.45 16.7 7.06 16.5 6.64C16.41 6.45 16.33 6.25 16.26 6.05Z" fill="#003366" fill-opacity="1.000000" fill-rule="evenodd"/>
		<path id="Vector" d="M5.73 4.78C5.9 4.79 6.06 4.79 6.22 4.78C6.38 4.78 6.54 4.71 6.69 4.68L7.29 4.55C7.33 4.56 7.37 4.56 7.41 4.55C7.45 4.55 7.49 4.53 7.53 4.51C7.56 4.49 7.6 4.46 7.62 4.43C7.65 4.39 7.66 4.36 7.67 4.32C7.69 4.28 7.69 4.23 7.69 4.19C7.68 4.15 7.67 4.11 7.65 4.07C7.63 4.04 7.6 4 7.57 3.98C7.53 3.95 7.5 3.94 7.45 3.92L6.68 3.77L6.29 3.7L5.88 3.7L5.65 3.7C5.34 3.78 5.06 3.89 4.75 3.96C4.68 3.96 4.62 3.97 4.57 4C4.51 4.02 4.46 4.06 4.42 4.1C4.38 4.15 4.35 4.2 4.33 4.26C4.31 4.31 4.3 4.37 4.31 4.43L4.21 6.85L4.21 7.85L4.21 8.73C4.23 8.96 4.32 9.17 4.45 9.34C4.56 9.47 4.69 9.56 4.84 9.62C4.99 9.69 5.15 9.71 5.32 9.7L6.04 9.6L6.65 9.5L7.83 9.34C7.9 9.32 7.96 9.27 8 9.2C8.04 9.13 8.05 9.05 8.03 8.97C8.01 8.9 7.97 8.83 7.9 8.78C7.84 8.74 7.76 8.72 7.68 8.72L6.6 8.72L6 8.73L5.39 8.73L5.29 8.73C5.28 8.69 5.28 8.64 5.29 8.59L5.29 7.86L5.16 6.86L5.16 6.72C5.32 6.8 5.49 6.86 5.65 6.89C5.77 6.94 5.88 6.97 6 7C6.11 7 6.24 7 6.35 7C6.64 6.95 6.92 6.87 7.18 6.76C7.27 6.74 7.34 6.7 7.39 6.63C7.44 6.56 7.47 6.48 7.45 6.39C7.45 6.35 7.43 6.31 7.41 6.28C7.39 6.24 7.36 6.21 7.33 6.18C7.29 6.16 7.25 6.14 7.21 6.13C7.17 6.12 7.13 6.12 7.09 6.12C6.84 6.12 6.6 6.02 6.34 5.98C6.17 5.97 5.99 5.97 5.83 5.98C5.58 5.96 5.33 5.96 5.09 6L4.88 4.59C5.16 4.68 5.45 4.74 5.73 4.78Z" fill="#003366" fill-opacity="1.000000" fill-rule="evenodd"/>
		<path id="Vector" d="M19.87 19C18.87 19.3 17.7 19.54 16.61 19.89C15.86 20.12 15.15 20.42 14.47 20.8C11.47 22.43 11.95 23.84 11.91 22.91L11.86 21.04L11.86 19.8C11.86 19.39 11.86 18.98 11.8 18.56C11.73 17.74 11.59 16.92 11.44 16.09C11.44 16.02 11.41 15.95 11.35 15.9C11.3 15.84 11.23 15.81 11.16 15.81C11.08 15.81 11.01 15.84 10.96 15.9C10.9 15.95 10.88 16.02 10.88 16.09C10.88 17.09 10.76 18.09 10.77 19.09C10.77 19.76 10.85 20.41 10.91 21.09L11.28 23L11.28 23.05L10.58 22.56C10.31 22.41 10.03 22.29 9.74 22.2C9.33 22.05 8.91 21.96 8.5 21.82C8.08 21.69 7.66 21.58 7.24 21.5C6.83 21.41 6.41 21.34 6 21.3L4.39 21.11L3.55 20.92C3.26 20.85 3.11 20.8 3.04 20.64C2.94 20.16 2.9 19.66 2.93 19.16L2.61 17C2.54 16.31 2.49 15.64 2.4 15C2.34 14.54 2.26 14.09 2.16 13.64C2.14 13.57 2.09 13.51 2.03 13.47C1.96 13.43 1.89 13.41 1.82 13.42C1.78 13.43 1.74 13.45 1.71 13.47C1.68 13.49 1.65 13.52 1.63 13.55C1.62 13.58 1.6 13.62 1.6 13.65C1.59 13.69 1.59 13.73 1.61 13.77C1.67 14.17 1.71 14.58 1.74 15C1.74 15.65 1.74 16.31 1.79 17L1.9 19.25C1.85 19.85 1.89 20.46 2 21.05C2.1 21.31 2.28 21.53 2.5 21.69C2.72 21.86 2.98 21.96 3.26 22L4.17 22.2C4.46 22.25 4.75 22.28 5.05 22.3L5.93 22.3C6.32 22.31 6.71 22.33 7.11 22.38C7.5 22.44 7.9 22.52 8.29 22.61C8.7 22.72 9.12 22.79 9.53 22.89C9.78 22.96 10.03 23.05 10.27 23.15L11.43 23.86C11.43 23.86 11.96 24.01 12.09 23.81C12.66 23.13 13.36 22.57 14.16 22.15C14.45 22 14.75 21.84 15.05 21.71C15.51 21.49 15.97 21.29 16.44 21.08C17.67 20.57 18.92 20.08 20.08 19.61C20.11 19.6 20.15 19.58 20.18 19.56C20.21 19.53 20.24 19.49 20.26 19.46C20.28 19.42 20.29 19.38 20.29 19.34C20.29 19.29 20.28 19.25 20.27 19.21C20.26 19.17 20.24 19.13 20.21 19.1C20.18 19.07 20.15 19.04 20.11 19.02C20.08 19 20.03 18.98 19.99 18.98C19.95 18.98 19.91 18.98 19.87 19Z" fill="#003366" fill-opacity="1.000000" fill-rule="evenodd"/>
		<path id="Vector" d="M21 14.1C21 14.06 20.99 14.02 20.98 13.99C20.97 13.95 20.95 13.92 20.92 13.89C20.9 13.86 20.87 13.84 20.83 13.83C20.8 13.81 20.76 13.8 20.73 13.81C20.69 13.8 20.65 13.81 20.61 13.82C20.58 13.84 20.55 13.86 20.52 13.88C20.49 13.91 20.47 13.94 20.46 13.98C20.44 14.01 20.43 14.05 20.43 14.09C20.32 14.7 20.25 15.31 20.21 15.93C20.2 16.29 20.2 16.66 20.21 17.02C20.21 17.57 20.32 18.09 20.31 18.62C20.3 18.67 20.3 18.71 20.31 18.75C20.32 18.79 20.34 18.83 20.37 18.86C20.4 18.9 20.43 18.93 20.47 18.95C20.5 18.97 20.54 18.98 20.59 18.99C20.63 18.99 20.67 18.99 20.71 18.98C20.75 18.97 20.78 18.95 20.82 18.92C20.85 18.9 20.88 18.87 20.9 18.83C20.92 18.8 20.93 18.76 20.93 18.71C21.08 18.18 21.17 17.63 21.23 17.08C21.25 16.84 21.25 16.6 21.23 16.36C21.24 16.14 21.24 15.9 21.23 15.67C21.15 15.13 21 14.62 21 14.1Z" fill="#003366" fill-opacity="1.000000" fill-rule="evenodd"/>
		<path id="Vector" d="M16.18 17.45C15.82 17.59 15.47 17.7 15.11 17.87C14.59 18.16 14.1 18.49 13.64 18.87C13.61 18.89 13.58 18.91 13.55 18.94C13.52 18.97 13.5 19.01 13.49 19.04C13.48 19.08 13.47 19.12 13.48 19.16C13.48 19.2 13.49 19.24 13.51 19.27C13.53 19.31 13.56 19.34 13.59 19.36C13.62 19.38 13.66 19.4 13.7 19.41C13.74 19.41 13.78 19.41 13.82 19.41C13.86 19.4 13.89 19.38 13.92 19.35C14.52 19.1 15.15 18.98 15.77 18.77C16.04 18.67 16.29 18.56 16.55 18.45C16.81 18.35 17.17 18.09 17.55 17.95C17.74 17.87 17.95 17.81 18.15 17.79C18.24 17.79 18.32 17.76 18.38 17.71C18.45 17.65 18.49 17.58 18.5 17.5C18.5 17.45 18.49 17.41 18.48 17.37C18.46 17.33 18.44 17.29 18.42 17.26C18.39 17.23 18.35 17.21 18.32 17.19C18.28 17.17 18.24 17.16 18.2 17.15C17.91 17.1 17.61 17.1 17.32 17.15C16.94 17.23 16.56 17.33 16.18 17.45Z" fill="#343434" fill-opacity="1.000000" fill-rule="evenodd"/>
		<path id="Vector" d="M4.89 19.46C5.36 19.6 5.89 19.77 6.41 19.88C6.7 19.93 7 19.96 7.28 20C7.71 20.02 8.13 20.11 8.52 20.26C8.6 20.3 8.69 20.31 8.77 20.29C8.85 20.28 8.92 20.22 8.97 20.15C9.02 20.08 9.03 19.99 9.01 19.91C8.99 19.82 8.94 19.75 8.86 19.71C8.41 19.36 7.9 19.12 7.34 19C7.02 18.91 6.68 18.86 6.34 18.87C5.84 18.87 5.34 18.94 4.93 18.95C4.9 18.94 4.86 18.94 4.83 18.95C4.79 18.96 4.76 18.98 4.73 19C4.7 19.02 4.68 19.05 4.66 19.08C4.64 19.11 4.63 19.15 4.62 19.19C4.63 19.26 4.66 19.32 4.71 19.37C4.76 19.42 4.82 19.45 4.89 19.46Z" fill="#343434" fill-opacity="1.000000" fill-rule="evenodd"/>
		<path id="Vector" d="M6 17.67C6.15 17.73 6.3 17.77 6.45 17.79C6.6 17.79 6.77 17.85 6.91 17.88C7.29 17.95 7.66 17.98 8.03 18.04C8.1 18.07 8.19 18.07 8.27 18.04C8.34 18 8.4 17.94 8.43 17.86C8.46 17.78 8.46 17.7 8.42 17.62C8.39 17.54 8.32 17.48 8.25 17.45C7.91 17.25 7.55 17.06 7.18 16.91C7.03 16.85 6.87 16.79 6.7 16.75C6.54 16.7 6.37 16.68 6.19 16.66C5.79 16.65 5.39 16.67 5 16.74C4.96 16.73 4.92 16.73 4.89 16.74C4.85 16.76 4.82 16.77 4.79 16.8C4.76 16.82 4.74 16.85 4.72 16.88C4.71 16.91 4.7 16.95 4.69 16.99C4.69 17.03 4.7 17.07 4.71 17.1C4.73 17.14 4.75 17.18 4.78 17.21C4.8 17.24 4.84 17.26 4.88 17.27C4.91 17.29 4.95 17.3 5 17.29C5.31 17.39 5.63 17.55 6 17.67Z" fill="#343434" fill-opacity="1.000000" fill-rule="evenodd"/>
		<path id="Vector" d="M17.12 15.38C16.62 15.32 16.12 15.35 15.64 15.47C15.42 15.51 15.22 15.58 15.03 15.67C14.83 15.77 14.65 15.88 14.49 16.02C14.11 16.33 13.77 16.69 13.49 17.08C13.43 17.14 13.4 17.21 13.4 17.28C13.4 17.36 13.42 17.43 13.48 17.49C13.53 17.54 13.6 17.57 13.67 17.57C13.75 17.57 13.82 17.55 13.88 17.5C14.31 17.22 14.76 16.98 15.24 16.78C15.53 16.62 15.8 16.46 16.1 16.34C16.41 16.2 16.75 16.09 17.1 16.03C17.14 16.02 17.18 16.01 17.22 16C17.26 15.98 17.29 15.95 17.32 15.92C17.35 15.89 17.37 15.85 17.39 15.81C17.4 15.77 17.41 15.73 17.4 15.68C17.4 15.61 17.37 15.54 17.32 15.48C17.26 15.43 17.19 15.39 17.12 15.38Z" fill="#343434" fill-opacity="1.000000" fill-rule="evenodd"/>
	</g>
</svg>
