<svg width="24.000000" height="22.340820" viewBox="0 0 24 22.3408" fill="none" xmlns="http://www.w3.org/2000/svg" xmlns:xlink="http://www.w3.org/1999/xlink">
	<desc>
			Created with Pixso.
	</desc>
	<defs/>
	<path id="Vector" d="M9.85 13.92C10.67 14.2 11.55 14.29 12.42 14.2C13.45 14.17 14.44 13.85 15.3 13.28C16.15 12.7 16.82 11.9 17.24 10.96C17.66 10.02 17.8 8.98 17.66 7.96C17.51 6.95 17.08 5.99 16.42 5.2C15.84 4.52 15.12 3.99 14.3 3.64C13.48 3.29 12.59 3.13 11.7 3.19C10.81 3.24 9.95 3.51 9.18 3.96C8.41 4.4 7.75 5.03 7.27 5.77C5.66 8.16 6.5 11.66 8.1 12.69C8.16 12.74 8.25 12.76 8.33 12.75C8.41 12.73 8.48 12.69 8.53 12.62C8.58 12.55 8.6 12.47 8.58 12.39C8.57 12.3 8.53 12.23 8.46 12.18C7.18 11.28 6.6 8.18 8.05 6.29C8.47 5.71 9.02 5.22 9.65 4.88C10.28 4.53 10.99 4.33 11.71 4.29C12.43 4.25 13.15 4.38 13.82 4.66C14.48 4.94 15.08 5.36 15.56 5.9C17.93 8.71 16.56 12.98 12.35 13.47C11.58 13.58 10.8 13.53 10.06 13.31C10.01 13.28 9.96 13.26 9.91 13.25C9.86 13.24 9.8 13.24 9.75 13.26C9.7 13.27 9.65 13.3 9.61 13.34C9.58 13.38 9.55 13.42 9.53 13.47C9.51 13.52 9.51 13.58 9.51 13.63C9.52 13.69 9.54 13.74 9.57 13.78C9.6 13.82 9.65 13.86 9.69 13.89C9.74 13.91 9.79 13.92 9.85 13.92Z" fill="#343434" fill-opacity="1.000000" fill-rule="evenodd"/>
	<path id="Vector" d="M23.63 4.98C23.51 3.89 23.56 1.71 22.71 1.11C20.8 -0.25 16.71 0.11 13.9 0.02C10.42 -0.1 6.69 0.18 3.28 0.27C3.23 0.27 3.18 0.27 3.13 0.28C3.08 0.29 3.04 0.32 3 0.35C2.96 0.38 2.93 0.42 2.91 0.47C2.89 0.51 2.88 0.56 2.88 0.61C2.88 0.66 2.89 0.71 2.91 0.75C2.93 0.8 2.96 0.84 3 0.87C3.04 0.9 3.08 0.92 3.13 0.94C3.18 0.95 3.23 0.95 3.28 0.94C6.74 0.94 10.35 0.68 13.86 0.86C16.29 0.99 20.53 0.73 22.12 1.86C22.5 2.14 22.51 4.32 22.59 5.06C22.93 7.75 22.95 10.47 22.66 13.16C22.61 14.06 22.46 14.94 22.22 15.8C19.82 17.02 2.51 18.04 1.47 16.36C1.09 15.01 0.87 13.62 0.83 12.21C0.69 8.59 0.89 4.96 1.43 1.37C1.72 1.1 1.31 0.66 1.03 0.93C0.6 1.32 0.68 2.56 0.61 3C0.04 6.37 -0.13 9.78 0.09 13.18C0.13 14.43 0.34 15.67 0.7 16.86C1.54 18.27 7.05 18.32 8.7 18.33C8.04 19.19 7.72 20.26 7.81 21.33L5.65 21.48C5.57 21.48 5.49 21.52 5.44 21.57C5.38 21.63 5.35 21.71 5.35 21.78C5.35 21.86 5.38 21.94 5.44 22C5.49 22.05 5.57 22.08 5.65 22.08C7.65 22.15 9.17 22.35 11.65 22.33C14.13 22.31 15.71 22.1 17.72 21.95C17.77 21.96 17.82 21.96 17.86 21.95C17.91 21.93 17.96 21.91 17.99 21.88C18.03 21.85 18.06 21.81 18.08 21.76C18.1 21.72 18.12 21.67 18.12 21.62C18.12 21.57 18.1 21.52 18.08 21.48C18.06 21.43 18.03 21.39 17.99 21.36C17.96 21.33 17.91 21.3 17.86 21.29C17.82 21.28 17.77 21.28 17.72 21.28L15.88 21.28C15.75 20.18 15.41 19.11 14.88 18.13C17.15 18.01 19.41 17.72 21.64 17.25C23.09 16.88 23.35 16.51 23.54 15.44C24.12 11.98 24.15 8.45 23.63 4.98ZM15.11 21.28C12.26 21.21 10.86 21.19 8.56 21.28C8.72 20.89 8.96 20.37 9.07 19.99C9.21 19.45 9.31 18.9 9.37 18.34C9.37 18.22 9.64 18.42 14.05 18.15C14.14 19.27 14.5 20.34 15.11 21.28Z" fill="#003366" fill-opacity="1.000000" fill-rule="evenodd"/>
	<path id="Vector" d="M9.35 8.84C9.35 8.84 8.77 9.01 9 9.34C9.39 9.93 10.06 10.96 10.72 11C11.85 11.06 13.18 7.93 13.66 6.91C13.81 6.76 13.9 6.56 13.93 6.34C13.92 6.27 13.89 6.2 13.84 6.15C13.8 6.09 13.73 6.06 13.66 6.04C13.59 6.02 13.52 6.03 13.45 6.05C13.39 6.08 13.33 6.12 13.29 6.18C13.05 6.46 10.61 10 10.67 10.09C10.48 10.12 9.49 8.93 9.35 8.84Z" fill="#003366" fill-opacity="1.000000" fill-rule="evenodd"/>
</svg>
