<svg width="24.000000" height="24.000000" viewBox="0 0 24 24" fill="none" xmlns="http://www.w3.org/2000/svg" xmlns:xlink="http://www.w3.org/1999/xlink">
	<desc>
			Created with Pixso.
	</desc>
	<defs>
		<clipPath id="clip15_421">
			<rect id="Icon" rx="0.000000" width="23.000000" height="23.000000" transform="translate(0.500000 0.500000)" fill="white" fill-opacity="0"/>
		</clipPath>
	</defs>
	<rect id="Icon" rx="0.000000" width="23.000000" height="23.000000" transform="translate(0.500000 0.500000)" fill="#FFFFFF" fill-opacity="0"/>
	<g clip-path="url(#clip15_421)">
		<path id="Vector" d="M18.82 7.25C18.54 6.99 18.23 6.75 17.91 6.54L18 6.46C18.05 6.39 18.17 6.33 18.26 6.25C18.37 6.12 18.47 5.98 18.54 5.83C18.59 5.73 18.63 5.63 18.67 5.55L19.24 5.84C19.35 5.93 19.47 6 19.6 6.05C19.8 6.11 19.93 6.05 20 6.05C20.05 6.05 20.14 5.91 20.12 5.78C20.12 5.71 20.1 5.65 20.07 5.59C20.03 5.54 19.98 5.49 19.92 5.46C19.92 5.4 19.78 5.29 19.76 5.26L19.25 4.67C19.06 4.51 18.86 4.35 18.64 4.2C18.48 4.1 18.29 4.05 18.12 3.97C17.55 3.75 17.42 3.63 17.23 3.71C17.02 3.8 16.92 3.97 17.23 4.29C17.38 4.46 17.54 4.62 17.71 4.78C17.83 4.87 17.93 5 18.04 5.1L17.93 5.16C17.8 5.29 17.62 5.35 17.5 5.48C17.37 5.61 17.26 5.76 17.18 5.92L17.18 6.08C15.82 5.36 14.33 4.9 12.79 4.76L12.79 4.59C12.81 4.47 12.81 4.35 12.79 4.22C12.81 4.11 12.81 3.98 12.79 3.86C12.79 3.63 12.68 3.38 12.6 3.06C13.17 3.06 13.75 2.96 14.32 2.87C14.4 2.87 14.47 2.83 14.53 2.77C14.58 2.71 14.6 2.63 14.59 2.55C14.59 2.52 14.58 2.48 14.56 2.44C14.54 2.41 14.52 2.38 14.49 2.35C14.46 2.33 14.42 2.31 14.38 2.3C14.34 2.28 14.3 2.28 14.26 2.29C13.51 2.33 12.74 2.33 11.99 2.29C11.5 2.23 11.02 2.13 10.54 2C10.39 1.95 10.24 1.87 10.11 1.77C10.01 1.69 9.87 1.64 9.91 1.54C9.99 1.42 10.1 1.32 10.22 1.27C10.31 1.21 10.41 1.18 10.5 1.17C11.15 1.12 11.89 1.03 12.6 0.98C12.89 0.97 13.18 0.97 13.47 0.98C13.74 0.97 14.01 0.97 14.28 0.98C14.42 1 14.55 1.04 14.66 1.11C14.75 1.18 14.81 1.27 14.83 1.37C14.87 1.52 14.87 1.66 14.83 1.8C14.82 1.85 14.82 1.89 14.82 1.94C14.83 1.98 14.84 2.03 14.87 2.07C14.89 2.1 14.92 2.14 14.96 2.17C14.99 2.19 15.03 2.21 15.07 2.22C15.16 2.25 15.25 2.24 15.33 2.2C15.41 2.15 15.47 2.08 15.5 2C15.58 1.69 15.58 1.38 15.5 1.07C15.43 0.84 15.3 0.64 15.11 0.48C14.91 0.33 14.68 0.22 14.43 0.16C14.13 0.1 13.83 0.06 13.52 0.05C13.11 0 12.69 -0.02 12.26 0C11.64 0 11.01 0.05 10.45 0.05C10.11 0.07 9.78 0.19 9.5 0.38C9.21 0.58 8.98 0.86 8.83 1.18C8.76 1.39 8.75 1.61 8.8 1.83C8.85 2.04 8.96 2.23 9.11 2.38C9.46 2.7 9.88 2.92 10.34 3C10.86 3.06 11.38 3.09 11.89 3.07C11.82 3.37 11.76 3.61 11.73 3.83C11.72 3.96 11.72 4.08 11.73 4.2L11.73 4.57C11.72 4.6 11.72 4.62 11.73 4.64C10.86 4.61 10 4.66 9.14 4.79C7.63 5.06 6.23 5.76 5.1 6.8C3.97 7.84 3.16 9.18 2.75 10.66C1.84 13.56 2.11 16.7 3.5 19.4C5.22 22.62 9.61 24.31 13.66 23.88C23.61 22.87 23.1 11.1 18.82 7.25ZM18.45 21.15C17.45 22.36 14.99 22.89 12 23.05C9 23.22 7.23 21.65 5.22 20.05C4.94 19.73 4.7 19.37 4.51 18.99C3.29 16.54 3.07 13.71 3.88 11.1C4.27 9.83 4.95 8.66 5.88 7.7C6.86 6.8 8.06 6.17 9.35 5.88C10.98 5.6 12.65 5.63 14.26 6C15.7 6.38 17.06 7.03 18.26 7.9C19.84 9.79 20.74 12.16 20.81 14.61C20.87 17.25 20 19.87 18.45 21.15Z" fill="#003366" fill-opacity="1.000000" fill-rule="nonzero"/>
		<path id="Vector" d="M12.2 21.75C12.2 21.75 12.14 20.29 11.79 20.29C11.67 20.29 11.6 20.35 11.5 20.46C11.42 20.65 11.37 20.85 11.35 21.05C11.3 21.21 11.28 21.38 11.29 21.55C11.29 21.71 11.31 21.87 11.35 22.03C11.44 22.13 11.57 22.2 11.72 22.22C12.2 22.22 12.18 21.9 12.2 21.75Z" fill="#343434" fill-opacity="1.000000" fill-rule="nonzero"/>
		<path id="Vector" d="M12.2 7C12.2 7 12.14 8.45 11.79 8.45C11.68 8.45 11.6 8.45 11.5 8.28C11.42 8.09 11.37 7.89 11.35 7.69C11.3 7.54 11.28 7.37 11.29 7.2C11.29 7.04 11.31 6.88 11.35 6.71C11.44 6.61 11.57 6.54 11.72 6.53C12.2 6.52 12.19 6.85 12.2 7Z" fill="#343434" fill-opacity="1.000000" fill-rule="nonzero"/>
		<path id="Vector" d="M18.54 13.52C18.2 13.58 17.9 13.74 17.54 13.8C17.47 13.8 17.4 13.82 17.35 13.87C17.3 13.92 17.28 13.99 17.28 14.06C17.28 14.14 17.3 14.21 17.35 14.26C17.4 14.31 17.47 14.33 17.54 14.33C17.91 14.4 18.28 14.42 18.65 14.39C18.85 14.39 19.06 14.33 19.28 14.32L19.58 14.27C19.64 14.2 19.68 14.11 19.69 14.02C19.7 13.92 19.68 13.83 19.64 13.75C19.6 13.68 19.55 13.62 19.49 13.57C19.42 13.52 19.35 13.49 19.28 13.48C19.03 13.46 18.79 13.47 18.54 13.52Z" fill="#343434" fill-opacity="1.000000" fill-rule="nonzero"/>
		<path id="Vector" d="M17.64 19.29C17.54 19.14 17.43 18.99 17.31 18.86C17.16 18.7 17 18.55 16.83 18.42C16.67 18.3 16.5 18.18 16.33 18.08C16.26 18.03 16.18 18 16.11 18C16.03 18 15.96 18.02 15.91 18.07C15.86 18.12 15.84 18.19 15.84 18.27C15.84 18.39 15.78 18.27 16.29 18.95C16.37 19.07 16.45 19.21 16.56 19.37C16.66 19.5 16.78 19.63 16.9 19.76C16.95 19.8 17 19.84 17.06 19.86C17.12 19.88 17.18 19.9 17.25 19.89C17.54 19.83 17.81 19.51 17.64 19.29Z" fill="#343434" fill-opacity="1.000000" fill-rule="nonzero"/>
		<path id="Vector" d="M16.08 8.75C16 8.9 15.93 9.05 15.88 9.17C15.82 9.29 15.63 9.54 15.58 9.68C15.54 9.74 15.53 9.81 15.53 9.88C15.53 9.95 15.55 10.02 15.6 10.07C15.65 10.12 15.72 10.15 15.8 10.15C15.8 10.15 15.86 10.24 16.5 9.62L16.78 9.32C16.85 9.21 16.93 9.11 17 9C17.06 8.9 17.11 8.8 17.15 8.7C17.17 8.66 17.18 8.63 17.18 8.59C17.18 8.55 17.17 8.52 17.15 8.48C17.1 8.17 16.9 8.06 16.52 8.2C16.43 8.27 16.41 8.2 16.35 8.33C16.24 8.46 16.15 8.6 16.08 8.75Z" fill="#343434" fill-opacity="1.000000" fill-rule="nonzero"/>
		<path id="Vector" d="M5.68 13.35C6.01 13.42 6.31 13.57 6.68 13.63C6.76 13.63 6.83 13.65 6.88 13.7C6.93 13.75 6.95 13.82 6.95 13.9C6.95 13.97 6.93 14.04 6.88 14.09C6.83 14.14 6.76 14.17 6.68 14.17C6.32 14.23 5.95 14.25 5.58 14.23C5.37 14.23 5.16 14.17 4.94 14.16L4.64 14.1C4.58 14.03 4.54 13.94 4.53 13.85C4.52 13.75 4.54 13.66 4.58 13.58C4.76 13.32 4.94 13.31 4.94 13.31C5.19 13.29 5.44 13.3 5.68 13.35Z" fill="#343434" fill-opacity="1.000000" fill-rule="nonzero"/>
		<path id="Vector" d="M6.3 18.84C6.4 18.68 6.51 18.54 6.63 18.41C6.78 18.25 6.94 18.11 7.11 18C7.27 17.87 7.44 17.75 7.61 17.65C7.68 17.6 7.76 17.57 7.84 17.57C7.91 17.57 7.98 17.59 8.03 17.64C8.08 17.69 8.1 17.76 8.1 17.84C8.1 17.96 8.16 17.84 7.64 18.53C7.57 18.64 7.5 18.79 7.38 18.94C7.28 19.07 7.16 19.2 7.04 19.33C6.99 19.37 6.94 19.41 6.88 19.43C6.82 19.45 6.76 19.47 6.69 19.46C6.39 19.38 6.13 19.06 6.3 18.84Z" fill="#343434" fill-opacity="1.000000" fill-rule="nonzero"/>
		<path id="Vector" d="M8.14 8.75C8.22 8.9 8.29 9.05 8.35 9.17C8.4 9.29 8.6 9.54 8.64 9.68C8.66 9.74 8.66 9.81 8.64 9.88C8.65 9.94 8.62 10.01 8.57 10.06C8.52 10.11 8.45 10.14 8.38 10.15C8.38 10.15 8.32 10.24 7.67 9.62L7.4 9.32C7.34 9.21 7.29 9.1 7.23 9C7.17 8.9 7.13 8.8 7.08 8.7C7.05 8.63 7.05 8.55 7.08 8.48C7.13 8.17 7.34 8.06 7.71 8.2C7.8 8.27 7.82 8.2 7.89 8.33C7.99 8.46 8.07 8.6 8.14 8.75Z" fill="#343434" fill-opacity="1.000000" fill-rule="nonzero"/>
	</g>
</svg>
