<svg width="22.338623" height="24.008789" viewBox="0 0 22.3386 24.0088" fill="none" xmlns="http://www.w3.org/2000/svg" xmlns:xlink="http://www.w3.org/1999/xlink">
	<desc>
			Created with Pixso.
	</desc>
	<defs/>
	<path id="Vector" d="M10.28 2.2C10.16 1.88 10.08 1.93 8.16 0.34C8.09 0.29 8 0.27 7.91 0.29C7.83 0.3 7.75 0.35 7.69 0.42C7.64 0.49 7.61 0.57 7.62 0.66C7.63 0.75 7.67 0.83 7.73 0.89C10.16 3 9.55 2.17 9.51 3.62C9.53 4.99 9.45 6.36 9.26 7.72C9.19 8.18 9.09 8.64 8.95 9.09C8.89 9.17 8.83 9.24 8.75 9.3C8.75 9.3 8.65 9.3 8.59 9.3C7.62 9.35 6.65 9.35 5.68 9.3C4.39 9.28 3.1 9.2 1.81 9.04C2.37 7.2 2.34 4.79 2.52 1.15C3.75 0.92 5.82 0.67 6.29 0.62C6.37 0.6 6.45 0.56 6.49 0.48C6.54 0.41 6.55 0.33 6.54 0.25C6.52 0.16 6.47 0.09 6.4 0.05C6.33 0 6.24 -0.02 6.16 0C4.44 0.14 5.16 0.07 2.82 0.32C1.47 0.53 1.76 0.14 1.23 6.12C1.14 7.21 0.89 8.27 0.48 9.28C0.44 9.37 0.41 9.46 0.41 9.56C0.41 9.66 0.43 9.75 0.48 9.84C0.52 9.93 0.59 10 0.67 10.05C0.75 10.11 0.85 10.14 0.94 10.15C2.52 10.36 4.1 10.47 5.69 10.49C9.31 10.43 10.11 11.1 10.35 6.77C10.35 2.74 10.48 2.59 10.28 2.2Z" fill="#003366" fill-opacity="1.000000" fill-rule="nonzero"/>
	<path id="Vector" d="M22.33 2.74C22.33 1.9 21.94 1.88 20.05 0.34C20 0.31 19.93 0.29 19.86 0.29C19.79 0.29 19.73 0.31 19.67 0.34C14.4 0.18 13.89 0.28 13.67 0.85C13.45 1.42 13.28 5.91 12.87 7.85C12.52 9.5 12.17 9.45 12.4 9.9C12.45 9.99 12.51 10.07 12.6 10.12C12.68 10.17 12.77 10.21 12.87 10.21C13.87 10.31 14.78 10.42 15.69 10.48C16.6 10.54 19.69 10.59 20.4 10.48C21.86 10.32 21.98 9.4 22.17 7.9C22.32 6.49 22.36 5.08 22.28 3.66C22.28 3.42 22.34 3.05 22.33 2.74ZM21.52 2.86C21.52 3.14 21.45 3.44 21.44 3.62C21.49 5.34 21.34 7.05 20.99 8.73C20.99 8.85 20.95 8.97 20.9 9.07C20.84 9.17 20.76 9.26 20.66 9.33C20.47 9.47 16.02 9.27 15.78 9.25C15.11 9.2 14.45 9.13 13.78 9.06C14.36 7.18 14.33 4.74 14.51 1.2C16.22 0.99 17.94 0.89 19.66 0.92L20.86 1.92C21.47 2.51 21.55 2.38 21.52 2.86Z" fill="#003366" fill-opacity="1.000000" fill-rule="nonzero"/>
	<path id="Vector" d="M9.01 14.91C7.66 13.81 7.6 13.67 7.33 13.82C5.45 13.76 2.11 13.59 1.52 14.05C0.93 14.51 1.08 21 0.07 22.79C0.02 22.88 0 22.97 0 23.07C-0.01 23.17 0.02 23.27 0.06 23.36C0.11 23.45 0.17 23.52 0.26 23.57C0.34 23.63 0.43 23.66 0.53 23.67C2.11 23.87 3.69 23.98 5.28 24C8.91 23.93 9.68 24.61 9.94 20.29C9.94 15.06 10.28 16 9.01 14.91ZM9.16 16.37C9.16 16.65 9.09 16.95 9.08 17.13C9.13 18.85 8.98 20.56 8.63 22.24C8.56 22.53 8.63 22.6 8.3 22.84C7.97 23.08 3.65 22.78 3.42 22.76C2.75 22.71 2.09 22.64 1.42 22.57C1.98 20.75 1.95 18.64 2.15 14.71C3.87 14.49 5.6 14.4 7.33 14.44L8.53 15.44C9.16 16 9.21 15.89 9.16 16.37Z" fill="#003366" fill-opacity="1.000000" fill-rule="nonzero"/>
	<path id="Vector" d="M20.93 14.91C19.58 13.81 19.53 13.67 19.26 13.82C17.39 13.76 14.03 13.59 13.45 14.05C12.87 14.51 13.04 20.88 12 22.79C11.95 22.88 11.93 22.97 11.92 23.07C11.92 23.17 11.94 23.27 11.99 23.35C12.03 23.44 12.1 23.52 12.18 23.57C12.26 23.63 12.35 23.66 12.45 23.67C14.03 23.87 15.62 23.98 17.21 23.99C20.84 23.92 21.61 24.6 21.86 20.28C21.86 15.06 22.21 16 20.93 14.91ZM21.16 16.37C21.16 16.65 21.08 16.95 21.08 17.13C21.14 18.85 20.98 20.56 20.62 22.24C20.62 22.36 20.59 22.48 20.53 22.58C20.47 22.69 20.39 22.77 20.29 22.84C20.11 22.98 15.65 22.78 15.41 22.76C14.75 22.71 14.09 22.64 13.41 22.57C13.98 20.75 13.95 18.57 14.15 14.71C15.87 14.49 17.59 14.4 19.32 14.44L20.52 15.44C21.05 16 21.16 15.89 21.16 16.37Z" fill="#003366" fill-opacity="1.000000" fill-rule="nonzero"/>
	<path id="Vector" d="M5.56 4L6.5 4C7.99 3.82 8.16 3.88 8.16 3.66C8.16 3.44 6.79 3.27 6.25 3.27L5.25 3.27C3.58 3.43 3.6 3.48 3.59 3.61C3.66 3.93 5.23 4 5.56 4Z" fill="#343434" fill-opacity="1.000000" fill-rule="evenodd"/>
	<path id="Vector" d="M5.39 6.68L6.33 6.68C7.83 6.58 7.98 6.68 8.03 6.42C8.08 6.16 6.67 6 6.16 6C5.83 5.98 5.5 5.98 5.16 6C3.49 6.15 3.52 6.21 3.51 6.33C3.49 6.63 5.07 6.68 5.39 6.68Z" fill="#343434" fill-opacity="1.000000" fill-rule="evenodd"/>
	<path id="Vector" d="M5.1 17.87L6.04 17.87C7.54 17.76 7.69 17.87 7.74 17.6C7.79 17.33 6.37 17.21 5.84 17.2C5.52 17.2 5.2 17.2 4.84 17.25C3.17 17.4 3.2 17.46 3.18 17.58C3.16 17.82 4.78 17.87 5.1 17.87Z" fill="#343434" fill-opacity="1.000000" fill-rule="evenodd"/>
	<path id="Vector" d="M4.94 20.58L5.87 20.58C7.37 20.47 7.53 20.53 7.57 20.31C7.61 20.09 6.21 19.92 5.67 19.91C5.35 19.91 5.03 19.91 4.67 19.96C3 20.12 3.02 20.17 3.01 20.3C3.03 20.53 4.61 20.58 4.94 20.58Z" fill="#343434" fill-opacity="1.000000" fill-rule="evenodd"/>
	<path id="Vector" d="M16.92 18.23C17.24 18.23 17.55 18.23 17.86 18.18C19.36 18.08 19.52 18.13 19.56 17.92C19.6 17.71 18.2 17.52 17.66 17.52C17.35 17.52 17.03 17.54 16.71 17.57C15.03 17.72 15.06 17.78 15.05 17.9C15.02 18.18 16.6 18.23 16.92 18.23Z" fill="#343434" fill-opacity="1.000000" fill-rule="evenodd"/>
	<path id="Vector" d="M16.76 20.93C17.07 20.93 17.38 20.93 17.69 20.88C19.19 20.78 19.35 20.83 19.39 20.62C19.43 20.41 18.03 20.22 17.49 20.22C17.17 20.22 16.85 20.22 16.54 20.27C14.87 20.42 14.89 20.48 14.88 20.6C14.85 20.88 16.43 20.93 16.76 20.93Z" fill="#343434" fill-opacity="1.000000" fill-rule="evenodd"/>
	<path id="Vector" d="M17.34 4.16L18.28 4.16C19.77 4.05 19.93 4.11 19.98 3.89C20.03 3.67 18.61 3.5 18.07 3.49C17.76 3.49 17.44 3.49 17.12 3.54C15.45 3.7 15.47 3.75 15.46 3.88C15.43 4.11 17.01 4.16 17.34 4.16Z" fill="#343434" fill-opacity="1.000000" fill-rule="evenodd"/>
	<path id="Vector" d="M17.16 6.86C17.48 6.86 17.79 6.86 18.1 6.81C19.6 6.7 19.75 6.81 19.8 6.55C19.85 6.29 18.43 6.15 17.9 6.15L16.9 6.15C15.23 6.31 15.26 6.36 15.25 6.49C15.24 6.62 16.85 6.86 17.16 6.86Z" fill="#343434" fill-opacity="1.000000" fill-rule="evenodd"/>
</svg>
