<svg width="64.000000" height="64.000122" viewBox="0 0 64 64.0001" fill="none" xmlns="http://www.w3.org/2000/svg" xmlns:xlink="http://www.w3.org/1999/xlink">
	<desc>
			Created with Pixso.
	</desc>
	<defs/>
	<path id="Vector" d="M31.79 10.27C32.03 10.27 32.27 10.18 32.44 10.01C32.62 9.84 32.72 9.61 32.73 9.37C33.01 8.23 33.24 7.09 33.39 5.93C33.43 5.17 33.43 4.4 33.39 3.64C33.35 2.58 33.12 1.53 32.73 0.55C32.67 0.36 32.55 0.2 32.38 0.1C32.21 0 32.01 -0.03 31.82 0.01C31.6 0.01 31.26 0.23 30.99 0.84C30.76 1.72 30.57 2.61 30.43 3.5C30.39 4.27 30.39 5.03 30.43 5.8C30.43 6.97 30.8 8.06 30.96 9.21C30.95 9.33 30.95 9.46 30.98 9.58C31.02 9.7 31.07 9.82 31.15 9.92C31.23 10.02 31.32 10.1 31.43 10.16C31.54 10.22 31.67 10.26 31.79 10.27Z" fill="#003366" fill-opacity="1.000000" fill-rule="nonzero"/>
	<path id="Vector" d="M16.01 16.67C16.19 16.49 16.28 16.26 16.28 16.01C16.28 15.77 16.19 15.54 16.01 15.36C15.24 14.14 14.34 13 13.34 11.95C12.65 11.31 11.82 10.83 11.08 10.25L8.94 9.18C8.64 9 8.33 8.84 8.01 8.73C7.26 8.73 6.94 8.94 6.88 9.26C6.83 9.35 6.81 9.46 6.81 9.57C6.81 9.67 6.83 9.78 6.88 9.87C7.63 10.81 8.43 11.7 9.29 12.54C9.98 13.15 10.62 13.82 11.37 14.38C12.12 14.93 13.66 15.84 14.76 16.69C14.93 16.85 15.16 16.93 15.39 16.92C15.62 16.92 15.85 16.83 16.01 16.67Z" fill="#003366" fill-opacity="1.000000" fill-rule="nonzero"/>
	<path id="Vector" d="M10.14 31.46C8.86 31.13 7.54 30.98 6.22 31C5.48 31.01 4.75 31.08 4.03 31.22C3.05 31.49 2.05 31.67 1.04 31.75C0.93 31.72 0.82 31.71 0.71 31.73C0.61 31.74 0.5 31.78 0.41 31.83C0.31 31.89 0.23 31.96 0.17 32.05C0.1 32.13 0.05 32.23 0.02 32.34C-0.01 32.44 -0.01 32.55 0 32.65C0.02 32.76 0.05 32.86 0.11 32.95C0.16 33.04 0.23 33.12 0.32 33.19C0.41 33.25 0.51 33.3 0.61 33.32C1.86 33.92 3.23 34.22 4.61 34.2C5.37 34.19 6.12 34.11 6.86 33.96C8.01 33.75 9.02 33.37 9.98 33.29C10.23 33.31 10.47 33.23 10.66 33.07C10.85 32.91 10.97 32.69 11 32.44C11.01 32.2 10.93 31.96 10.77 31.78C10.61 31.59 10.38 31.48 10.14 31.46Z" fill="#003366" fill-opacity="1.000000" fill-rule="nonzero"/>
	<path id="Vector" d="M56.43 8.01C56.28 7.86 56.07 7.78 55.86 7.78C55.64 7.78 55.44 7.86 55.28 8.01C54.27 8.57 53.26 9.02 52.27 9.69C51.87 9.96 51.48 10.25 51.12 10.57L50.11 11.58C49.33 12.43 48.64 13.31 47.89 14.24C47.8 14.33 47.73 14.43 47.68 14.54C47.64 14.65 47.61 14.77 47.61 14.9C47.61 15.02 47.64 15.14 47.68 15.25C47.73 15.36 47.8 15.46 47.89 15.55C48.06 15.71 48.29 15.8 48.53 15.8C48.77 15.8 49 15.71 49.17 15.55C50.19 14.96 51.15 14.43 52.11 13.76L53.28 12.91C53.66 12.6 54 12.26 54.32 11.9C55.1 11.04 55.71 10.11 56.43 9.23C56.52 9.16 56.59 9.06 56.64 8.96C56.69 8.85 56.72 8.74 56.72 8.62C56.72 8.5 56.69 8.39 56.64 8.28C56.59 8.18 56.52 8.08 56.43 8.01Z" fill="#003366" fill-opacity="1.000000" fill-rule="nonzero"/>
	<path id="Vector" d="M61.53 31.46C61.21 31.46 60.92 31.32 60.6 31.3C60.15 31.26 59.71 31.26 59.26 31.3C58.09 31.46 57.05 31.86 55.9 32.12C55.68 32.16 55.48 32.27 55.34 32.44C55.2 32.61 55.12 32.82 55.12 33.04C55.12 33.26 55.2 33.47 55.34 33.64C55.48 33.81 55.68 33.92 55.9 33.96C57.05 34.2 58.22 34.36 59.4 34.41C59.86 34.41 60.31 34.34 60.76 34.23C61.07 34.15 61.37 34.06 61.66 33.93C62.29 33.77 62.89 33.53 63.45 33.21C63.8 32.89 64.04 32.65 63.99 32.36C64.07 31.54 62.92 31.7 61.53 31.46Z" fill="#003366" fill-opacity="1.000000" fill-rule="nonzero"/>
	<path id="Vector" d="M40.04 16C36.21 13.99 31.78 13.44 27.57 14.46C24.35 15.36 21.44 17.11 19.13 19.52C16.82 21.94 15.2 24.93 14.44 28.18C13.94 30.46 13.94 32.82 14.44 35.11C14.9 37.36 15.81 39.5 17.11 41.39C17.49 41.94 17.93 42.45 18.42 42.91C19.33 43.76 20.36 44.47 21.49 45.02C21.59 45.4 21.64 45.8 21.65 46.19L21.65 48.86L21.65 49.82C20.92 50.34 20.39 51.09 20.12 51.95C19.88 52.71 19.83 53.53 19.96 54.32C20.04 54.97 20.29 55.58 20.69 56.1C20.96 56.43 21.28 56.72 21.65 56.96C21.04 57.72 20.68 58.65 20.63 59.62C20.57 60.15 20.62 60.69 20.79 61.2C20.96 61.71 21.25 62.17 21.62 62.55C22.32 63.18 23.18 63.61 24.1 63.78C25.31 63.98 26.54 64.04 27.76 63.96C28.75 63.97 29.73 63.87 30.7 63.67C30.79 63.58 30.87 63.47 30.92 63.34C30.96 63.22 30.98 63.08 30.96 62.95C30.95 62.82 30.9 62.69 30.83 62.58C30.75 62.47 30.65 62.38 30.54 62.31C30.15 62.28 29.75 62.28 29.36 62.31L27.76 62.31C26.72 62.31 25.68 62.2 24.66 61.99C24.12 61.86 23.63 61.57 23.25 61.17C23.12 61 23.03 60.81 22.99 60.61C22.95 60.4 22.96 60.19 23.01 59.99C23.06 59.44 23.29 58.91 23.66 58.49C24.03 58.07 24.52 57.78 25.06 57.65C25.86 57.65 27.41 58.05 29.26 58.18C29.94 58.22 30.63 58.22 31.31 58.18L33.13 58.18C34.56 57.94 35.97 57.63 37.37 57.25L38.09 57.06C38.12 57.25 38.12 57.44 38.09 57.62C38.1 58.27 37.99 58.91 37.77 59.51C37.3 60.35 36.57 61.02 35.69 61.41C35.31 61.69 34.88 61.88 34.42 61.98C33.96 62.08 33.48 62.07 33.02 61.97C32.8 61.86 32.54 61.85 32.31 61.93C32.07 62.01 31.88 62.17 31.76 62.39C31.66 62.61 31.65 62.86 31.73 63.09C31.81 63.32 31.98 63.51 32.19 63.62C32.9 63.87 33.66 63.97 34.41 63.9C35.16 63.83 35.89 63.6 36.54 63.22C38 62.69 39.24 61.69 40.04 60.37C40.52 59.31 40.73 58.16 40.65 57.01C40.63 56.27 40.35 55.56 39.88 54.98C40.27 54.66 40.59 54.27 40.84 53.84C41.12 53.33 41.22 52.75 41.14 52.19C41.06 51.6 40.85 51.04 40.53 50.54C40.21 50.05 39.79 49.63 39.29 49.31C39.29 48.43 39.11 47.44 39.13 46.48C39.11 46.25 39.11 46.02 39.13 45.79C39.72 45.6 40.26 45.32 40.76 44.97C41.64 44.33 42.55 43.69 43.43 42.97C44.02 42.45 44.57 41.89 45.06 41.29C46.73 39.07 47.88 36.51 48.45 33.8C49.13 31.06 49.13 28.2 48.45 25.46C47.77 23.4 46.67 21.49 45.22 19.87C43.78 18.24 42.01 16.92 40.04 16ZM33.07 54.96L31.23 54.96L29.2 54.96C27.3 55.19 25.37 55.19 23.46 54.96C23.25 54.96 23.12 54.69 22.98 54.53C22.95 54.37 22.95 54.21 22.98 54.05C22.9 53.7 22.9 53.34 22.98 52.99C23.08 52.73 23.26 52.5 23.49 52.35C24.07 51.99 24.71 51.76 25.38 51.68C26.64 51.5 27.91 51.38 29.18 51.33C31.4 51.02 33.66 50.98 35.9 51.2C36.46 51.2 38.39 52.11 38.25 53.04C38.13 53.59 37.84 54.09 37.42 54.47C37.01 54.86 36.49 55.11 35.93 55.2C35.1 55.2 34.14 55.01 33.07 54.96ZM45.94 33.32C45.54 35.69 44.63 37.95 43.27 39.93C42.88 40.44 42.45 40.92 41.99 41.37C41.23 42.06 40.43 42.7 39.59 43.29C39.32 43.5 38.23 43.85 37.85 44.17C37.63 44.32 37.47 44.55 37.4 44.81C37.22 45.35 37.14 45.93 37.18 46.51C37.2 47.15 37.25 47.79 37.34 48.43C34.61 47.92 31.8 47.84 29.04 48.19C27.65 48.24 26.25 48.38 24.88 48.62C24.41 48.72 23.96 48.85 23.52 49.02L23.52 48.78C23.52 48.03 23.68 46.75 23.65 45.68C23.65 45.11 23.53 44.54 23.3 44.01C23.15 43.75 22.95 43.54 22.71 43.37C22.18 43.07 21.35 42.65 21.19 42.65C20.75 42.33 20.34 41.97 19.96 41.58C19.59 41.19 19.26 40.76 18.98 40.3C17.9 38.58 17.18 36.66 16.87 34.65C16.54 32.69 16.63 30.69 17.13 28.76C17.89 26.05 19.34 23.58 21.35 21.6C23.3 19.6 25.76 18.16 28.45 17.44C31.93 16.61 35.58 17.04 38.76 18.67C40.36 19.39 41.8 20.44 42.99 21.73C44.17 23.03 45.09 24.55 45.67 26.21C46.34 28.52 46.43 30.96 45.94 33.32Z" fill="#343434" fill-opacity="1.000000" fill-rule="nonzero"/>
	<path id="Vector" d="M39.32 26.42C38.95 25.58 38.44 24.81 37.83 24.13C37.35 23.66 36.81 23.27 36.22 22.96C35.62 22.6 34.95 22.37 34.25 22.29C33.72 22.19 33.18 22.19 32.65 22.29C32.01 22.58 31.71 22.98 31.95 23.54C32.19 24.1 33.23 23.89 33.79 24.13C34.17 24.29 34.51 24.53 34.78 24.85C35.08 25.17 35.35 25.52 35.58 25.89C36.01 26.53 36.36 27.22 36.62 27.94C36.95 28.68 37.21 29.44 37.4 30.23C37.65 31.27 37.65 32.36 37.4 33.4C37.31 33.63 37.32 33.89 37.42 34.11C37.52 34.33 37.7 34.51 37.93 34.6C38.16 34.68 38.41 34.67 38.64 34.57C38.86 34.47 39.04 34.29 39.13 34.07C39.91 32.41 40.17 30.55 39.88 28.74C39.8 27.94 39.61 27.16 39.32 26.42Z" fill="#343434" fill-opacity="1.000000" fill-rule="nonzero"/>
</svg>
