<svg width="64.000000" height="64.000000" viewBox="0 0 64 64" fill="none" xmlns="http://www.w3.org/2000/svg" xmlns:xlink="http://www.w3.org/1999/xlink">
	<desc>
			Created with Pixso.
	</desc>
	<defs>
		<clipPath id="clip2072_2047">
			<rect id="Icon" rx="0.000000" width="63.000000" height="63.000000" transform="translate(0.500000 0.500000)" fill="white" fill-opacity="0"/>
		</clipPath>
	</defs>
	<rect id="Icon" rx="0.000000" width="63.000000" height="63.000000" transform="translate(0.500000 0.500000)" fill="#FFFFFF" fill-opacity="0"/>
	<g clip-path="url(#clip2072_2047)">
		<path id="Vector" d="M39.17 6.02C34.68 6.27 30.22 6.92 25.84 7.94C25.17 7.94 20.31 8.66 19.76 8.9C19.65 8.93 19.55 8.97 19.47 9.04C19.39 9.1 19.32 9.18 19.27 9.27C19.21 9.37 19.18 9.47 19.18 9.58C19.17 9.68 19.18 9.79 19.22 9.89C19.57 10.9 27.97 9.89 39.57 8.95C43.03 8.5 45.43 7.78 48.69 7.14C50.4 6.89 52.09 6.48 53.73 5.91C53.78 5.81 53.81 5.7 53.82 5.59C53.83 5.48 53.82 5.36 53.78 5.25C53.74 5.15 53.68 5.05 53.6 4.96C53.53 4.88 53.43 4.81 53.33 4.77C52.85 4.26 52.31 4.55 39.17 6.02Z" fill="#343434" fill-opacity="1.000000" fill-rule="evenodd"/>
		<path id="Vector" d="M57.17 42.66L57.17 11.7C57.17 11.44 57.57 10.37 56.4 10.37C56.16 10.37 52 11.2 51.73 11.25L43.01 11.94C37.46 12.48 31.89 12.66 26.34 13.04C18.79 13.57 18.34 14.05 15.25 13.65C14.1 13.49 12.96 13.36 12.58 12.66C12.41 12.2 12.38 11.7 12.5 11.22C12.61 10.75 12.88 10.32 13.25 10C16 6.64 21.62 5.33 25.86 4.29C35.65 1.92 39.01 2.8 45.89 2.34C49.81 2.08 52.29 1.81 52.02 0.61C52 0.51 51.96 0.41 51.91 0.32C51.85 0.23 51.77 0.16 51.69 0.1C51.6 0.05 51.5 0.01 51.4 -0.01C51.3 -0.03 51.19 -0.03 51.09 0C41.57 2.05 36.5 -2.03 17.73 3.7C8 6.8 5.33 17.04 17.76 16.77C15.99 29.89 15.59 43.16 16.56 56.37C16.56 58.53 16.56 59.84 17.36 60.1C18.93 60.56 18.61 58.1 18.53 56.37C18.53 40.8 19.25 46 19.28 27.04C19.28 15.46 19.28 16.56 19.54 16.53C28.1 15.3 46.21 14.26 55.25 12.4C54.45 65.73 54.96 33.86 55.06 48.37C55.09 49.11 55.04 49.85 54.9 50.58C54.58 52.58 32.16 58.45 27.25 59.65C20.98 61.22 16.16 61.68 10.24 58.96C7.57 53.41 8.58 24.42 9.09 18.96C9.11 18.75 9.05 18.54 8.92 18.38C8.79 18.22 8.6 18.12 8.4 18.1C8.19 18.08 7.98 18.14 7.82 18.27C7.66 18.4 7.56 18.59 7.54 18.79C6.88 24.29 5.14 52.37 7.33 59.2C7.92 61.06 8.72 61.44 10.37 62.13C13.8 63.69 17.58 64.33 21.33 64C30.44 62.48 39.38 60.03 48 56.69C50.33 56.07 52.62 55.29 54.85 54.37C59.36 51.94 57.22 47.41 57.17 42.66Z" fill="#343434" fill-opacity="1.000000" fill-rule="evenodd"/>
		<path id="Vector" d="M26.66 35.22C28.34 35.67 30.1 35.22 41.84 33.17C43.6 32.85 46.31 32.69 47.17 31.01C47.67 29.42 47.77 27.74 47.46 26.1C47.46 24.82 48.98 19.12 45.76 19.25C45.6 19.25 26.5 22.24 25.3 22.26C25.07 22.26 24.84 22.35 24.68 22.52C24.51 22.68 24.42 22.91 24.42 23.14C24.42 23.84 24.66 22.42 24.42 26.72C24.64 29.7 23.17 34.21 26.66 35.22ZM26.42 24C28.45 24 22.96 24.15 45.6 22.21C44.98 30.98 45.38 29.43 41.41 30.21C28.31 32.87 27.38 33.46 26.82 32.87C26.26 32.29 26.66 28.26 26.48 26.66C26.48 26.5 26.39 24.93 26.42 24Z" fill="#003366" fill-opacity="1.000000" fill-rule="evenodd"/>
		<path id="Vector" d="M44.74 40C44.84 39.83 44.88 39.64 44.88 39.44C44.87 39.25 44.81 39.06 44.7 38.9C44.59 38.74 44.44 38.61 44.27 38.53C44.09 38.45 43.89 38.42 43.7 38.45C42.93 38.45 41.03 38.66 40.55 38.66C36.43 38.59 32.31 39.06 28.31 40.08C26.66 39.89 27.03 41.06 27.89 41.49C30.02 43.3 44.18 40.61 44.74 40Z" fill="#003366" fill-opacity="1.000000" fill-rule="evenodd"/>
		<path id="Vector" d="M28.29 52.1C28.9 52.11 29.51 52.04 30.1 51.91C32.14 51.87 34.17 51.7 36.18 51.41C39.36 50.87 42.32 49.75 45.17 49.51C45.38 49.48 45.57 49.37 45.71 49.21C45.84 49.04 45.92 48.84 45.92 48.62C45.92 48.41 45.84 48.2 45.71 48.04C45.57 47.87 45.38 47.76 45.17 47.73C37.91 47.11 28 50.39 27.78 51.01C27.57 51.62 27.92 51.91 28.29 52.1Z" fill="#003366" fill-opacity="1.000000" fill-rule="evenodd"/>
	</g>
</svg>
