<svg width="64.000244" height="64.000000" viewBox="0 0 64.0002 64" fill="none" xmlns="http://www.w3.org/2000/svg" xmlns:xlink="http://www.w3.org/1999/xlink">
	<desc>
			Created with Pixso.
	</desc>
	<defs/>
	<path id="Vector" d="M46.66 25.34C46.85 24.67 46.99 24 47.07 23.31C47.1 22.82 47.1 22.32 47.07 21.82C47.25 20.55 46.95 19.25 46.21 18.17C45.47 17.09 44.36 16.31 43.07 15.97C39.75 15.62 36.4 16.2 33.41 17.64C30.96 18.73 28.8 20.33 27.06 22.33C24.99 24.67 23.09 27.16 21.38 29.76C21.2 29.75 21.03 29.79 20.88 29.89C19.55 30.74 18.11 31.43 16.61 31.94C15.15 32.44 13.62 32.71 12.08 32.74C11 32.6 9.93 32.39 8.88 32.12C8.15 32.01 7.4 32.07 6.7 32.28C5.88 32.61 5.16 33.11 4.58 33.75C3.91 34.53 3.3 35.36 2.75 36.22C1.44 37.78 0.5 39.6 0 41.55C-0.01 42.33 0.2 43.11 0.6 43.79C1 44.47 1.58 45.04 2.29 45.43L5.21 47.24C5.3 47.31 5.41 47.36 5.52 47.39C5.64 47.41 5.76 47.42 5.87 47.4C5.99 47.38 6.1 47.35 6.2 47.29C6.3 47.23 6.38 47.15 6.45 47.06C6.58 46.87 6.63 46.64 6.59 46.42C6.55 46.19 6.42 45.99 6.23 45.86L3.47 43.92C2.51 43.09 2.17 42.4 2.26 41.73C2.39 41.21 2.64 40.72 2.98 40.3C3.36 39.76 3.83 39.23 4.3 38.65C4.89 39.36 5.53 40.03 6.2 40.67C6.52 40.99 6.87 41.27 7.25 41.52C7.62 41.79 8 42.03 8.41 42.24C9.32 42.75 10.26 43.17 11.17 43.62L5.65 51.4C5.53 51.56 5.49 51.77 5.52 51.97C5.56 52.17 5.67 52.34 5.84 52.46C5.98 52.56 6.14 52.61 6.3 52.61C6.46 52.61 6.63 52.56 6.76 52.46C6.72 52.62 6.75 52.78 6.83 52.92C6.91 53.07 7.04 53.18 7.2 53.23C8.06 54.17 8.99 55.06 9.96 55.9C10.43 56.23 10.91 56.54 11.42 56.83C11.92 57.12 12.45 57.37 12.99 57.57C14.27 58.07 15.59 58.44 16.94 58.69C17.16 58.77 17.41 58.76 17.63 58.66C17.85 58.56 18.02 58.38 18.1 58.16C18.17 57.94 18.14 57.71 18.03 57.51C17.93 57.31 17.74 57.16 17.52 57.09C16.33 56.51 15.31 55.79 14.21 55.12C13.1 54.46 12.74 54.22 12 53.82C10.67 53.15 9.24 52.65 7.94 51.98C7.84 51.92 7.72 51.89 7.6 51.89C7.48 51.89 7.36 51.92 7.25 51.98L12.08 45.75C12.12 45.86 12.19 45.95 12.27 46.02C13.35 46.95 14.26 48.02 15.31 48.95C16.03 49.59 16.79 50.17 17.6 50.71C19.01 51.6 20.52 52.33 22.1 52.89C22.31 52.97 22.55 52.97 22.76 52.89L22.29 53.47C20.99 55.31 19.45 57.01 18.23 58.56C18.07 58.72 17.98 58.93 17.98 59.16C17.98 59.38 18.07 59.6 18.23 59.76C18.4 59.92 18.63 60 18.87 60C19.11 60 19.33 59.92 19.5 59.76C20.25 58.98 21.02 58.08 21.85 57.09C21.77 57.15 21.69 57.22 21.64 57.3C21.58 57.39 21.55 57.48 21.53 57.57C21.51 57.67 21.51 57.77 21.54 57.87C21.56 57.96 21.6 58.05 21.66 58.13C22.27 59.5 23.22 60.7 24.42 61.65C25.13 62.18 25.92 62.61 26.76 62.92C27.98 63.39 29.25 63.75 30.54 63.99C31.18 64.2 35.54 59.2 35.62 59.09C36.41 58.1 36.96 56.96 37.22 55.74C37.31 55.06 37.23 54.38 37 53.74C36.67 52.73 35.95 51.69 35.76 50.84C35.29 49.24 35.05 47.58 35.07 45.91C35.03 44.23 35.28 42.55 35.81 40.94C35.83 40.87 35.83 40.79 35.81 40.72C38.12 38.45 40.32 36.07 42.38 33.59C44.39 31.16 45.85 28.35 46.66 25.34ZM34.46 20.33C36.85 19.13 39.55 18.6 42.24 18.82C43.4 19.11 44.12 20.04 44.17 21.9C44.23 22.35 44.23 22.81 44.17 23.26C44.11 23.74 44.01 24.22 43.9 24.7C43.46 26.49 42.74 28.21 41.74 29.78C41.8 29.1 41.8 28.41 41.74 27.73C41.72 26.82 41.52 25.92 41.16 25.07C40.77 24.23 40.18 23.5 39.43 22.93C38.68 22.36 37.8 21.97 36.86 21.8C34.76 21.49 32.62 21.81 30.71 22.7C31.81 21.71 33.08 20.91 34.46 20.33ZM10.23 40.08C9.9 39.78 9.55 39.5 9.18 39.23C8.82 38.97 8.45 38.73 8.05 38.51C7.22 38.05 6.36 37.64 5.49 37.26C5.87 36.69 6.29 36.15 6.76 35.64C7.04 35.34 7.37 35.1 7.75 34.92C8 34.87 8.27 34.87 8.52 34.92C9.75 35.15 11 35.28 12.25 35.29C14.05 35.07 15.8 34.57 17.43 33.8C18.01 33.54 18.57 33.22 19.12 32.9L12.41 42.21C11.67 41.5 11 40.78 10.23 40.08ZM22.95 51.37C21.83 50.55 20.76 49.66 19.75 48.71C19.03 48.12 18.32 47.51 17.52 46.98C16.13 46.11 14.67 45.35 13.16 44.72C13.16 44.72 12.99 44.72 12.91 44.72L22.48 32.42C24.59 29.55 26.85 26.79 29.27 24.17L29.27 23.95L29.27 24.09C29.31 24.18 29.37 24.26 29.44 24.33C29.51 24.4 29.6 24.45 29.7 24.49C29.79 24.53 29.89 24.55 29.99 24.55C30.1 24.55 30.2 24.52 30.29 24.49C31.9 24.02 33.61 23.93 35.26 24.22C35.96 24.32 36.64 24.56 37.25 24.91C37.83 25.2 38.31 25.64 38.63 26.19C39.06 26.89 39.34 27.67 39.45 28.48C39.57 29.36 39.63 30.25 39.62 31.14C39.6 31.31 39.63 31.48 39.71 31.63C39.78 31.78 39.91 31.91 40.06 31.99C37.52 35.35 34.32 38.38 31.78 41.52C29.24 44.66 26.26 48.39 23.37 52.17C23.4 52.01 23.37 51.85 23.3 51.7C23.22 51.56 23.1 51.44 22.95 51.37ZM30.98 61.46C30.87 61.62 30.82 61.8 30.82 61.99C29.63 61.35 28.42 60.55 27.15 59.76C26.72 59.49 26.28 59.24 25.82 59.01C25.38 58.74 24.91 58.56 24.47 58.29C23.92 57.97 23.41 57.59 22.95 57.15C22.89 57.07 22.82 57 22.74 56.95C22.65 56.89 22.55 56.86 22.45 56.84C22.35 56.82 22.25 56.82 22.15 56.84C22.05 56.87 21.96 56.9 21.88 56.96L23.75 54.67L25.27 52.89C25.27 52.98 25.29 53.08 25.34 53.17C25.38 53.25 25.44 53.33 25.52 53.39C26.13 54.19 26.62 55.04 27.29 55.82C27.56 56.15 27.86 56.46 28.2 56.75C28.53 57.03 28.88 57.28 29.24 57.52C30.12 58.1 31.04 58.61 32 59.04C32.19 59.16 32.42 59.2 32.64 59.17C32.17 60 31.53 60.77 30.98 61.46ZM33.74 57.73L33.47 58.13C33.41 57.94 33.29 57.76 33.13 57.63C32.39 56.93 31.81 56.16 31.12 55.44C30.67 54.96 30.18 54.5 29.66 54.09C28.7 53.41 27.7 52.81 26.65 52.28C26.55 52.2 26.44 52.15 26.32 52.13C26.2 52.1 26.08 52.1 25.96 52.12C28.53 49.05 31.09 45.91 33.25 43.46C33.03 44.18 32.88 44.91 32.78 45.65C32.52 47.55 32.59 49.49 32.97 51.37C33.22 52.3 33.93 53.45 34.35 54.51C34.48 54.75 34.56 55.01 34.57 55.28C34.51 56.15 34.22 56.99 33.74 57.73Z" fill="#343434" fill-opacity="1.000000" fill-rule="evenodd"/>
	<path id="Vector" d="M51.76 35.67C53.31 33.48 54.85 31.33 56.15 29.04C57.04 27.46 57.8 25.83 58.44 24.14C59.38 21.03 59.61 17.76 59.1 14.56C58.27 10.05 57.12 5.61 55.68 1.25C55.63 1.07 55.52 0.92 55.37 0.82C55.22 0.72 55.04 0.67 54.85 0.69C54.82 0.51 54.73 0.35 54.6 0.22C54.46 0.1 54.29 0.02 54.11 0C50.85 0.09 47.61 0.39 44.39 0.9C42.16 1.26 39.96 1.85 37.85 2.66C35.77 3.51 33.81 4.63 32.03 5.98C29.46 8.07 27.04 10.33 24.8 12.75C23.39 14.24 21.9 15.7 20.52 17.22C19.54 18.24 18.62 19.32 17.77 20.44C17.63 20.59 17.55 20.77 17.55 20.97C17.55 21.17 17.63 21.36 17.77 21.5C17.86 21.6 17.97 21.67 18.09 21.71C18.22 21.75 18.36 21.77 18.49 21.74C18.62 21.72 18.74 21.67 18.85 21.59C18.95 21.51 19.04 21.41 19.09 21.29C19.95 20.28 20.87 19.32 21.85 18.42C23.37 17.03 24.99 15.75 26.51 14.37C28.8 12.2 31.2 10.15 33.71 8.22C35.32 6.98 37.08 5.93 38.96 5.11C40.82 4.27 42.76 3.62 44.75 3.16C47.83 2.48 50.96 2 54.11 1.73C55.13 6.05 55.89 10.44 56.4 14.85C56.72 17.67 56.42 20.53 55.51 23.23C54.95 24.79 54.26 26.3 53.47 27.76C52.28 30.02 50.96 32.2 49.58 34.39C48.64 35.94 47.61 37.44 46.49 38.89C45.43 40.33 44.28 41.71 43.07 43.04C42.9 43.2 42.81 43.42 42.81 43.65C42.81 43.88 42.9 44.1 43.07 44.26C43.23 44.42 43.46 44.51 43.69 44.51C43.92 44.51 44.14 44.42 44.31 44.26C45.7 42.95 47.01 41.58 48.26 40.14C49.47 38.7 50.63 37.26 51.76 35.67Z" fill="#343434" fill-opacity="1.000000" fill-rule="evenodd"/>
	<path id="Vector" d="M63.54 29.28C63.07 27.55 62.38 25.84 61.89 24.35C61.83 24.16 61.7 24 61.52 23.9C61.34 23.8 61.12 23.77 60.92 23.82C60.72 23.87 60.56 23.99 60.45 24.16C60.35 24.33 60.32 24.53 60.37 24.72C60.7 26.24 61.23 27.97 61.5 29.68C61.67 30.69 61.67 31.72 61.5 32.74C61.38 33.5 61.13 34.23 60.78 34.92C60.23 36.09 59.54 37.18 58.91 38.3C57.75 40.53 56.4 42.67 54.88 44.69C52.62 47.86 50.19 50.92 47.9 54.09C47.76 54.27 47.71 54.5 47.75 54.72C47.78 54.95 47.91 55.15 48.09 55.28C48.18 55.35 48.29 55.4 48.4 55.43C48.51 55.46 48.63 55.47 48.75 55.45C48.86 55.44 48.97 55.4 49.07 55.35C49.17 55.29 49.26 55.21 49.33 55.12C52.28 51.64 55.6 48.36 58.36 44.72C59.57 43.1 60.65 41.39 61.58 39.6C62.16 38.38 62.85 37.18 63.32 35.9C63.7 34.97 63.92 33.98 63.98 32.98C64.04 31.73 63.89 30.48 63.54 29.28Z" fill="#003366" fill-opacity="1.000000" fill-rule="evenodd"/>
	<path id="Vector" d="M4.6 22.41L10.67 14.98C11.75 13.49 12.8 11.76 14.04 10.24C14.46 9.66 14.94 9.11 15.48 8.62C15.94 8.24 16.47 7.94 17.05 7.74C18.1 7.34 19.23 7.13 20.36 6.81C22.21 6.25 23.92 5.59 25.71 5.13C26.87 4.82 28.07 4.63 29.27 4.57C29.48 4.57 29.68 4.5 29.83 4.36C29.98 4.22 30.07 4.03 30.07 3.83C30.07 3.63 29.98 3.43 29.83 3.29C29.68 3.15 29.48 3.06 29.27 3.06C27.95 3.01 26.63 3.09 25.33 3.3C23.45 3.56 21.66 4.01 19.81 4.36C18.57 4.54 17.35 4.78 16.14 5.08C15.2 5.37 14.33 5.83 13.57 6.44C12.61 7.26 11.77 8.2 11.06 9.23C10.07 10.64 9.29 12.21 8.3 13.6C7.31 14.98 7.2 15.7 6.45 16.74C5.38 18.31 4.27 19.85 3.2 21.29C3.13 21.38 3.07 21.48 3.04 21.59C3.01 21.7 3.01 21.81 3.02 21.92C3.04 22.03 3.07 22.14 3.13 22.24C3.19 22.34 3.27 22.42 3.36 22.49C3.54 22.63 3.77 22.7 4 22.69C4.23 22.67 4.45 22.57 4.6 22.41Z" fill="#003366" fill-opacity="1.000000" fill-rule="evenodd"/>
</svg>
